<?xml version="1.0" standalone="no"?>
<!DOCTYPE svg PUBLIC "-//W3C//DTD SVG 20010904//EN"
 "http://www.w3.org/TR/2001/REC-SVG-20010904/DTD/svg10.dtd">
<svg version="1.0" xmlns="http://www.w3.org/2000/svg"
 width="650.000000pt" height="650.000000pt" viewBox="0 0 650.000000 650.000000"
 preserveAspectRatio="xMidYMid meet">
<metadata>
Created by potrace 1.14, written by Peter Selinger 2001-2017
</metadata>
<g transform="translate(0.000000,650.000000) scale(0.100000,-0.100000)"
fill="#000000" stroke="none">
<path d="M1924 5738 c-2 -4 -14 -5 -26 -3 -12 3 -30 -3 -39 -11 -10 -9 -23
-13 -28 -9 -6 3 -17 3 -23 -2 -24 -14 -42 -15 -380 -16 -186 -1 -338 -4 -338
-8 0 -3 -17 -5 -37 -3 -21 1 -51 -6 -68 -14 -16 -9 -33 -15 -37 -14 -5 1 -8
-3 -8 -8 0 -6 -6 -10 -14 -10 -8 0 -28 -13 -45 -29 -18 -17 -34 -29 -36 -28
-2 1 -22 -24 -45 -55 -23 -32 -38 -58 -34 -58 3 0 1 -7 -6 -15 -6 -8 -9 -19
-5 -25 3 -5 2 -10 -3 -10 -5 0 -15 -24 -21 -52 -13 -54 -15 -74 -27 -228 -4
-47 -8 -601 -10 -1232 -1 -631 -4 -1150 -7 -1155 -2 -4 -4 -241 -3 -525 1
-285 -2 -518 -6 -518 -6 0 -4 -122 5 -285 8 -140 62 -301 140 -414 29 -42 97
-115 97 -104 0 7 74 -39 82 -51 4 -6 8 -7 8 -2 0 4 10 2 23 -6 41 -27 92 -39
201 -48 102 -9 619 -22 696 -18 35 2 219 2 410 0 58 0 112 -1 120 0 39 1 245
-14 252 -18 4 -3 47 -9 96 -15 48 -5 101 -12 117 -15 66 -13 258 -19 390 -12
348 18 482 28 520 38 17 5 59 11 94 14 35 4 67 9 72 11 4 3 30 8 56 10 26 3
67 13 91 22 23 9 45 14 48 11 3 -3 37 6 77 19 40 14 79 26 87 28 8 1 33 10 55
20 22 10 49 22 60 27 12 5 27 10 35 12 28 5 223 107 311 162 20 13 40 20 43
17 3 -4 6 -1 6 5 0 6 13 18 29 27 84 43 330 240 331 264 0 8 3 11 7 8 9 -9 63
43 63 60 0 7 4 12 8 10 16 -4 185 210 237 301 6 9 26 44 45 77 75 129 109 194
168 327 71 155 148 444 158 588 1 19 7 71 13 115 16 127 22 254 21 485 -1 118
-1 227 -1 243 1 15 -2 27 -6 27 -5 0 -9 21 -9 48 -2 42 -6 83 -18 162 -7 46
-26 134 -36 165 -5 16 -16 57 -25 90 -9 33 -20 68 -26 77 -5 10 -9 25 -9 33 0
9 -9 37 -21 63 -49 111 -94 207 -99 212 -3 3 -10 14 -17 25 -53 90 -121 194
-140 215 -13 14 -23 28 -23 31 0 3 -24 31 -52 61 -29 30 -69 74 -88 98 -42 51
-197 202 -232 225 -9 6 -54 36 -101 68 -48 32 -130 81 -184 108 -54 28 -111
59 -128 68 -16 10 -42 21 -57 25 -16 3 -28 11 -28 16 0 6 -8 10 -18 10 -10 0
-23 5 -30 12 -6 6 -22 13 -34 15 -13 2 -24 8 -26 13 -2 5 -10 6 -18 3 -8 -3
-14 0 -14 6 0 6 -11 11 -25 11 -14 0 -25 4 -25 8 0 5 -12 10 -27 10 -38 2 -56
6 -70 15 -7 5 -17 5 -23 2 -5 -3 -10 -2 -10 2 0 8 -23 13 -67 16 -7 0 -13 4
-13 9 0 4 -10 8 -22 8 -53 0 -87 6 -101 18 -8 7 -19 12 -23 11 -5 -1 -12 0
-16 1 -5 1 -12 4 -18 5 -5 1 -11 4 -12 5 -2 1 -14 3 -28 4 -14 1 -29 4 -35 7
-5 3 -26 5 -45 5 -19 -1 -38 3 -41 7 -3 4 -25 9 -50 12 -24 2 -44 4 -44 5 0 3
-40 12 -57 13 -10 1 -18 4 -18 7 0 3 -96 5 -212 5 -117 -1 -217 1 -223 4 -5 3
-19 6 -30 8 -38 6 -120 14 -130 14 -85 -4 -186 -11 -210 -14 -16 -2 -35 0 -40
4 -6 4 -23 6 -38 5 -15 -2 -29 0 -32 4 -2 3 -97 6 -210 5 -114 0 -208 2 -210
6 -5 8 -133 5 -141 -4 -3 -3 -22 0 -42 7 -21 7 -64 12 -97 11 -33 -1 -64 1
-70 4 -15 9 -126 8 -131 -1z m1141 -1052 c28 -2 61 -7 75 -11 14 -4 44 -8 68
-10 23 -3 52 -9 63 -16 11 -6 23 -8 26 -5 3 3 28 -4 57 -14 28 -11 59 -20 69
-20 10 0 29 -7 42 -16 14 -9 25 -14 25 -10 0 3 17 -3 38 -14 59 -31 136 -63
145 -62 4 1 7 -3 7 -8 0 -6 7 -10 15 -10 8 0 15 -3 15 -8 0 -4 12 -13 28 -19
15 -7 38 -23 52 -36 14 -13 33 -26 43 -30 9 -3 17 -11 17 -17 0 -5 7 -10 15
-10 7 0 19 -8 24 -17 6 -10 11 -14 11 -9 0 6 11 -6 25 -25 14 -19 29 -33 33
-31 3 2 9 -5 13 -15 4 -10 8 -14 8 -10 1 12 51 -48 51 -61 0 -6 4 -12 9 -14
19 -7 101 -166 139 -269 33 -89 62 -221 79 -358 30 -236 17 -687 -24 -834 -8
-28 -20 -79 -28 -112 -24 -105 -116 -325 -152 -363 -7 -7 -13 -17 -13 -21 0
-4 -18 -27 -40 -51 -22 -25 -40 -49 -40 -55 -2 -16 -164 -146 -228 -183 -137
-79 -283 -134 -396 -149 -34 -5 -115 7 -166 24 -8 3 -53 4 -100 3 -68 -1 -98
-7 -155 -30 -63 -27 -79 -29 -165 -27 -52 2 -104 8 -115 14 -11 6 -47 23 -79
38 -33 15 -71 35 -84 46 -16 12 -34 17 -52 14 -19 -3 -30 0 -34 11 -3 8 -10
12 -16 9 -6 -3 -7 1 -4 9 4 10 -1 18 -11 22 -13 5 -14 9 -3 15 9 6 10 9 1 9
-7 0 -25 24 -40 53 l-28 52 1 835 c1 900 8 1515 18 1595 11 89 17 104 52 134
32 29 49 36 100 46 10 2 21 4 24 5 3 1 10 3 15 5 6 1 12 3 15 4 3 1 20 4 39 7
19 2 36 5 37 7 4 4 428 -2 479 -7z m2323 -932 c52 -36 83 -169 82 -359 -1
-169 -8 -326 -15 -333 -3 -3 -5 -21 -5 -39 0 -51 -20 -119 -41 -142 -10 -11
-19 -24 -19 -29 0 -13 -44 -24 -63 -16 -9 3 -18 12 -21 20 -3 7 -12 11 -19 8
-10 -4 -17 6 -22 33 -5 21 -10 45 -12 53 -3 8 -6 38 -7 66 -2 28 -5 55 -8 60
-9 15 -7 563 2 569 4 3 6 20 3 38 -7 51 27 87 81 87 23 0 52 -7 64 -16z
m-2948 -1896 c0 -4 -4 -8 -9 -8 -6 0 -12 4 -15 8 -3 5 1 9 9 9 8 0 15 -4 15
-9z"/>
</g>
</svg>
