<svg width="171" height="36" viewBox="0 0 171 36" fill="none" xmlns="http://www.w3.org/2000/svg">
<path fill-rule="evenodd" clip-rule="evenodd" d="M27.8333 18C27.8333 25.0877 22.0877 30.8333 15 30.8333C7.91234 30.8333 2.16666 25.0877 2.16666 18C2.16666 10.9123 7.91234 5.16666 15 5.16666C22.0877 5.16666 27.8333 10.9123 27.8333 18ZM30 18C30 26.2843 23.2843 33 15 33C6.71573 33 0 26.2843 0 18C0 9.71573 6.71573 3 15 3C23.2843 3 30 9.71573 30 18ZM23.2759 11.2759C23.2759 12.1329 22.5812 12.8276 21.7242 12.8276C20.8672 12.8276 20.1725 12.1329 20.1725 11.2759C20.1725 10.4189 20.8672 9.72418 21.7242 9.72418C22.5812 9.72418 23.2759 10.4189 23.2759 11.2759ZM10.4879 19.209C11.1556 21.7009 13.717 23.1797 16.2089 22.512C18.7008 21.8443 20.1796 19.2829 19.5119 16.791C18.8442 14.2991 16.2828 12.8203 13.7909 13.488C11.299 14.1557 9.82015 16.7171 10.4879 19.209ZM8.39503 19.7698C9.37244 23.4175 13.1219 25.5823 16.7696 24.6049C20.4174 23.6274 22.5821 19.878 21.6047 16.2302C20.6273 12.5825 16.8779 10.4177 13.2301 11.3952C9.58236 12.3726 7.41762 16.122 8.39503 19.7698Z" fill="url(#paint0_linear_218_5)"/>
<path d="M47.9091 28H41.0085V7.63636H48.0483C50.0701 7.63636 51.8068 8.04403 53.2585 8.85938C54.7169 9.66809 55.8371 10.8314 56.6193 12.3494C57.4015 13.8674 57.7926 15.6837 57.7926 17.7983C57.7926 19.9195 57.3982 21.7424 56.6094 23.267C55.8272 24.7917 54.697 25.9616 53.2188 26.777C51.7472 27.5923 49.9773 28 47.9091 28ZM44.6974 24.8082H47.7301C49.1487 24.8082 50.3319 24.5497 51.2798 24.0327C52.2277 23.509 52.9403 22.7301 53.4176 21.696C53.8949 20.6553 54.1335 19.3561 54.1335 17.7983C54.1335 16.2405 53.8949 14.9479 53.4176 13.9205C52.9403 12.8864 52.2344 12.1141 51.2997 11.6037C50.3717 11.0866 49.2183 10.8281 47.8395 10.8281H44.6974V24.8082ZM74.1342 7.63636H77.8232V20.9403C77.8232 22.3987 77.4785 23.6813 76.7891 24.7884C76.1063 25.8954 75.1451 26.7604 73.9055 27.3835C72.666 28 71.2176 28.3082 69.5604 28.3082C67.8965 28.3082 66.4448 28 65.2053 27.3835C63.9657 26.7604 63.0045 25.8954 62.3217 24.7884C61.639 23.6813 61.2976 22.3987 61.2976 20.9403V7.63636H64.9865V20.6321C64.9865 21.4806 65.1721 22.2363 65.5433 22.8991C65.9212 23.562 66.4515 24.0824 67.1342 24.4602C67.817 24.8314 68.6257 25.017 69.5604 25.017C70.495 25.017 71.3037 24.8314 71.9865 24.4602C72.6759 24.0824 73.2062 23.562 73.5774 22.8991C73.9486 22.2363 74.1342 21.4806 74.1342 20.6321V7.63636ZM66.5874 5.3892C66.0637 5.3892 65.6096 5.2036 65.2251 4.83239C64.8473 4.46117 64.6584 4.02367 64.6584 3.51989C64.6584 2.98958 64.8473 2.54545 65.2251 2.1875C65.6096 1.82292 66.0637 1.64062 66.5874 1.64062C67.1243 1.64062 67.575 1.82292 67.9396 2.1875C68.3108 2.54545 68.4964 2.98958 68.4964 3.51989C68.4964 4.02367 68.3108 4.46117 67.9396 4.83239C67.575 5.2036 67.1243 5.3892 66.5874 5.3892ZM72.5533 5.3892C72.0296 5.3892 71.5755 5.2036 71.1911 4.83239C70.8132 4.46117 70.6243 4.02367 70.6243 3.51989C70.6243 2.98958 70.8132 2.54545 71.1911 2.1875C71.5755 1.82292 72.0296 1.64062 72.5533 1.64062C73.0902 1.64062 73.541 1.82292 73.9055 2.1875C74.2768 2.54545 74.4624 2.98958 74.4624 3.51989C74.4624 4.02367 74.2768 4.46117 73.9055 4.83239C73.541 5.2036 73.0902 5.3892 72.5533 5.3892ZM92.8995 13.2344C92.8067 12.366 92.4156 11.6899 91.7262 11.206C91.0434 10.7221 90.1552 10.4801 89.0614 10.4801C88.2925 10.4801 87.6329 10.5961 87.0827 10.8281C86.5326 11.0601 86.1116 11.375 85.82 11.7727C85.5283 12.1705 85.3791 12.6245 85.3725 13.1349C85.3725 13.5592 85.4686 13.9271 85.6609 14.2386C85.8597 14.5502 86.1282 14.8153 86.4663 15.0341C86.8043 15.2462 87.1789 15.4252 87.5898 15.571C88.0008 15.7169 88.4151 15.8395 88.8327 15.9389L90.7418 16.4162C91.5108 16.5952 92.2499 16.8371 92.9592 17.142C93.6751 17.447 94.3147 17.8314 94.8782 18.2955C95.4483 18.7595 95.899 19.3196 96.2305 19.9759C96.5619 20.6321 96.7276 21.401 96.7276 22.2827C96.7276 23.4759 96.4227 24.5265 95.8129 25.4347C95.203 26.3362 94.3214 27.0421 93.168 27.5526C92.0212 28.0563 90.6325 28.3082 89.0018 28.3082C87.4175 28.3082 86.042 28.063 84.8754 27.5724C83.7153 27.0819 82.8072 26.366 82.1509 25.4247C81.5013 24.4834 81.15 23.3366 81.0969 21.9844H84.7262C84.7792 22.6937 84.998 23.2836 85.3825 23.7543C85.7669 24.2249 86.2674 24.5762 86.8839 24.8082C87.507 25.0402 88.203 25.1562 88.9719 25.1562C89.774 25.1562 90.4767 25.0369 91.0799 24.7983C91.6897 24.553 92.167 24.215 92.5117 23.7841C92.8564 23.3466 93.0321 22.8362 93.0387 22.2528C93.0321 21.7225 92.8763 21.285 92.5714 20.9403C92.2665 20.589 91.8389 20.2973 91.2887 20.0653C90.7451 19.8267 90.1088 19.6146 89.3796 19.429L87.0629 18.8324C85.3858 18.4015 84.06 17.7486 83.0856 16.8736C82.1178 15.992 81.6339 14.822 81.6339 13.3636C81.6339 12.1638 81.9587 11.1132 82.6083 10.2116C83.2646 9.31013 84.1561 8.6108 85.283 8.11364C86.4099 7.60985 87.686 7.35795 89.1112 7.35795C90.5562 7.35795 91.8223 7.60985 92.9094 8.11364C94.0032 8.6108 94.8616 9.3035 95.4847 10.1918C96.1078 11.0734 96.4293 12.0876 96.4492 13.2344H92.8995ZM100.016 28V7.63636H103.705V16.2571H113.141V7.63636H116.84V28H113.141V19.3494H103.705V28H100.016Z" fill="white"/>
<defs>
<linearGradient id="paint0_linear_218_5" x1="15" y1="3" x2="15" y2="33" gradientUnits="userSpaceOnUse">
<stop stop-color="#877EFF"/>
<stop offset="0.461458" stop-color="#685DFF"/>
<stop offset="1" stop-color="#3121FF"/>
</linearGradient>
</defs>
</svg>
